PathFileType	4	(X/Y/Z)	Patient4_TMGait_0pt4_02_right_15.trc.trc
DataRate	CameraRate	NumFrames	NumMarkers	Units	OrigDataRate	OrigDataStartFrame	OrigNumFrames
76.502732240437	76.502732240437	4	33	mm	76.502732240437	106	       141
Frame#	Time	Sacral			L.Shoulder			Chest			R.Shoulder			Neck			R.ASIS			L.ASIS			R.Thigh.Superior			R.Thigh.Lateral			R.Thigh.Inferior			R.Patella			L.Thigh.Superior			L.Thigh.Lateral			L.Thigh.Inferior			L.Patella			L.Shank.Superior			L.Shank.Lateral			L.Shank.Inferior			R.Shank.Superior			R.Shank.Lateral			R.Shank.Inferior			R.Heel			R.Midfoot.Superior			R.Midfoot.Lateral			R.Toe			L.Heel			L.Midfoot.Lateral			L.Midfoot.Superior			L.Toe			L.Elbow			L.Wrist			R.Elbow			R.Wrist			
		X1	Y1	Z1	X2	Y2	Z2	X3	Y3	Z3	X4	Y4	Z4	X5	Y5	Z5	X6	Y6	Z6	X7	Y7	Z7	X8	Y8	Z8	X9	Y9	Z9	X10	Y10	Z10	X11	Y11	Z11	X12	Y12	Z12	X13	Y13	Z13	X14	Y14	Z14	X15	Y15	Z15	X16	Y16	Z16	X17	Y17	Z17	X18	Y18	Z18	X19	Y19	Z19	X20	Y20	Z20	X21	Y21	Z21	X22	Y22	Z22	X23	Y23	Z23	X24	Y24	Z24	X25	Y25	Z25	X26	Y26	Z26	X27	Y27	Z27	X28	Y28	Z28	X29	Y29	Z29	X30	Y30	Z30	X31	Y31	Z31	X32	Y32	Z32	X33	Y33	Z33	

106	20.732500000000	848.163722155170	1008.678471435175	415.998937799977	1054.141403364210	1436.869996443904	236.173749720766	1143.281476691517	1366.144697418339	403.828033176464	1049.308935091600	1440.227094364343	572.309766569442	1028.203664869714	1498.628261028705	392.214402402845	1074.895972725986	952.006772029988	540.348694013520	1069.097263795561	964.730513735445	266.086579255848	1165.846040745950	787.776366328738	511.400317209697	1134.460367299164	667.879122911808	592.920149794468	1222.042169716180	630.084827077541	512.466372435734	1251.413224600391	528.239302892117	538.146288573596	1116.283680934470	751.591313355893	299.008983915571	1029.969009616269	635.365219481290	237.329938914902	1111.061821867696	558.717220103737	305.044831982781	1109.787880485323	490.005565963692	316.226252637665	1083.480741246320	417.319196280215	307.447578269284	994.388269722236	302.979850394213	256.774024067914	1041.602694104043	192.653919544675	331.147561644906	1196.546759179882	441.173671727290	551.221948344884	1097.129914015244	371.627922985898	622.391050291215	1110.640880306790	261.172274659548	576.295780865575	935.204274272366	149.499214416822	567.426810128196	1115.544262043864	132.897051847457	593.291280908724	1012.669103651333	104.406404529144	633.840240039005	1205.971536654538	37.374961808268	607.857357881327	912.831054816686	38.311800182355	374.898710074252	984.002157428708	34.904260444195	291.564429534486	1067.476174400854	96.714825668994	317.364246143344	1195.479464786013	46.673080685334	283.904781697977	1099.227140621834	1101.867233784204	87.871498285442	1293.361239490334	925.024200495503	106.408532362340	956.667609449981	1100.625976212801	679.568176824537	974.810717379996	839.571636130551	688.167692847635	
107	20.745571428571	847.659162372650	1009.386605294776	414.229484223606	1056.832590881515	1437.290930093868	236.411144985132	1144.231892981363	1365.835029442148	404.655328351249	1049.207517902693	1440.061857643973	572.458310075274	1029.568249987962	1498.797036344712	392.510539255248	1073.366087218293	952.281424931104	540.500116077267	1069.648149869483	964.718756490170	266.030231974749	1163.641508787489	787.578292796196	512.665703037123	1130.777562845548	667.950620986554	594.431518208905	1218.425311218333	629.556029597116	514.645605958393	1248.178596983884	530.177534461018	540.139835504693	1114.688731736875	751.008279265784	299.865132145969	1028.009519121018	635.355368586913	237.031925362299	1107.871978570366	558.149020629021	305.342329028562	1106.004590063576	489.496372638010	316.399500165865	1079.516381677970	416.936205936028	307.514585445868	990.175560371956	302.883271621704	256.677782366863	1036.693473270824	192.425974431521	331.226892643072	1198.274046866756	441.986751571690	552.942291832443	1104.201972220129	366.118752149969	624.327209498946	1124.835648396764	256.999071424410	577.639904194583	957.559915821792	133.658339296172	568.574798879131	1138.456956665816	129.612647123103	594.452151938558	1037.916566235825	94.380723281312	635.158645739823	1235.144860564009	40.981264012603	609.350231239282	907.567280591984	38.304073608488	374.892869697423	978.747636476357	34.900540669403	291.557783222257	1062.263487288476	96.654439630069	317.427492319176	1190.261181631970	46.496128099793	283.926034748574	1103.320459485728	1103.550734397494	86.578322470907	1304.168929342653	934.748052833384	107.634445357149	948.367618035012	1102.914955632955	678.529070816915	957.606279788094	841.532557261549	686.618019791751	
108	20.758642857143	847.278679272894	1010.065210385771	412.594421786022	1059.561994185792	1437.556876620732	236.755820157747	1145.272450438350	1365.439581989910	405.576522074710	1049.256874670324	1439.903872737487	572.682252777902	1031.011578453179	1498.887969138210	392.858305084725	1071.912861586677	952.393271497122	540.821061040000	1070.250051544269	964.644654547075	266.136418819467	1160.904643945072	786.668512023812	514.193209257474	1126.002496452295	667.435070007154	595.982410275721	1213.721755057603	628.227199649344	516.946377660447	1243.690585585239	531.546246601311	541.987928122041	1113.134191684058	750.383597284182	300.775067205201	1026.074833741317	635.328655500922	236.802769013729	1104.688078098872	557.564585827756	305.682192762551	1102.215161781023	488.974083248764	316.599862005889	1075.555430457606	416.540492900960	307.610180986019	985.963710568467	302.782908555715	256.600485659356	1031.811963685069	192.193829152681	331.306206811667	1199.095701291373	442.642473149784	554.617607232345	1111.157875581131	360.575879838995	626.395379160545	1139.093061827763	253.339785880689	579.038164308341	981.238540501867	118.405759333148	569.995913037415	1161.835955046204	127.332663179818	595.529147366158	1064.288859872585	85.278091965458	636.560059530030	1264.536927843049	46.255025246528	610.552195440228	902.312894555199	38.295832467650	374.881480630841	973.494781261854	34.894285020401	291.549957315903	1057.049933482595	96.590268023940	317.491506842032	1185.042026233369	46.315639899550	283.949260079113	1107.221967420213	1104.955108123812	85.582331388273	1314.211635840399	944.269176770130	109.168287562950	940.471197197610	1105.435913753603	677.703363806547	941.864711006501	844.032890951169	685.089425762287	
109	20.771714285714	847.041753674302	1010.708537667463	411.125313036521	1062.287595782047	1437.674499729819	237.205621687625	1146.385006506768	1364.978492422885	406.584489959309	1049.443473646967	1439.760800669313	572.984987566257	1032.509211692101	1498.910025283101	393.255671411344	1070.570929007224	952.354082000314	541.311215473767	1070.911104081326	964.509701505551	266.411601304310	1157.652723053039	785.053352639805	515.955651581325	1120.260079755855	666.387426297344	597.545326148893	1208.029098187593	626.175829707316	519.262911737580	1238.088893445836	532.380373077135	543.604417633696	1111.649923980125	749.712116629880	301.715840912078	1024.171004649091	635.283341389766	236.662109834276	1101.532858349298	556.958538483456	306.069854180209	1098.441763855438	488.435183925194	316.841608516222	1071.616323452362	416.133307585504	307.749282227578	981.766975331442	302.685023067067	256.552093995030	1026.962267864627	191.956633084211	331.390746817507	1199.030014572621	443.213117605010	556.202174622021	1117.871186719352	355.226789380299	628.504677822616	1153.143040337364	250.416576047194	580.431539557783	1005.816849138126	104.231302821180	571.565403713630	1185.236186644476	126.279053899938	596.488918798741	1091.272857420443	77.438531926789	637.938787529059	1293.550599750517	53.265938308684	611.430191101574	897.066281512886	38.290540523926	374.863137084751	968.243677087183	34.886839333934	291.541409564619	1051.838474362633	96.522598490563	317.555528683515	1179.824196833142	46.126236242296	283.973623357126	1110.971580773241	1106.073460188182	84.912723643904	1323.492792952318	953.466118639302	110.995099704201	933.054328770792	1108.125744655372	677.053018291667	927.607330084318	846.891374271436	683.616609484803	
